0
SECTION
2
HEADER
9
$ACADVER
1
AC1009
9
$INSUNITS
70
4
0
ENDSEC
0
SECTION
2
TABLES
0
TABLE
2
LAYER
70
12
0
LAYER
2
OUTLINE
70
0
62
7
6
CONTINUOUS
0
LAYER
2
ROOM-TEXT
70
0
62
7
6
CONTINUOUS
0
LAYER
2
TITLE
70
0
62
7
6
CONTINUOUS
0
LAYER
2
NOTES
70
0
62
8
6
CONTINUOUS
0
LAYER
2
ZONE-CONVERSION
70
0
62
30
6
CONTINUOUS
0
LAYER
2
ZONE-THEATRE
70
0
62
1
6
CONTINUOUS
0
LAYER
2
ZONE-PROCEDURE
70
0
62
6
6
CONTINUOUS
0
LAYER
2
ZONE-PLAZA
70
0
62
5
6
CONTINUOUS
0
LAYER
2
ZONE-DIAGNOSTICS
70
0
62
3
6
CONTINUOUS
0
LAYER
2
ZONE-PHARMACY
70
0
62
2
6
CONTINUOUS
0
LAYER
2
ZONE-COMMON
70
0
62
8
6
CONTINUOUS
0
LAYER
2
ZONE-BOH
70
0
62
9
6
CONTINUOUS
0
ENDTAB
0
ENDSEC
0
SECTION
2
ENTITIES
0
POLYLINE
8
OUTLINE
66
1
70
1
10
0.0
20
0.0
30
0.0
0
VERTEX
8
OUTLINE
10
0.0
20
11924.0
30
0.0
0
VERTEX
8
OUTLINE
10
10500.0
20
11924.0
30
0.0
0
VERTEX
8
OUTLINE
10
10500.0
20
43789.0
30
0.0
0
VERTEX
8
OUTLINE
10
0.0
20
43789.0
30
0.0
0
SEQEND
8
OUTLINE
0
TEXT
8
TITLE
10
0.0
20
45289.0
30
0.0
40
620.0
1
GROUND FLOOR
0
TEXT
8
TITLE
10
0.0
20
44689.0
30
0.0
40
420.0
1
Lyfe Place International Clinic, conversion hub
0
TEXT
8
NOTES
10
0.0
20
44139.0
30
0.0
40
360.0
1
true overall 24695 x 13025 mm  /  12 rooms  /  182 sqm allocated
0
POLYLINE
8
ZONE-COMMON
66
1
70
1
10
0.0
20
0.0
30
0.0
0
VERTEX
8
ZONE-COMMON
10
500.0
20
12424.0
30
0.0
0
VERTEX
8
ZONE-COMMON
10
9276.0
20
12424.0
30
0.0
0
VERTEX
8
ZONE-COMMON
10
9276.0
20
19039.0
30
0.0
0
VERTEX
8
ZONE-COMMON
10
500.0
20
19039.0
30
0.0
0
SEQEND
8
ZONE-COMMON
0
TEXT
8
ROOM-TEXT
10
650.0
20
18339.0
30
0.0
40
330.0
1
RECEPTION, WAITING & CONCIERGE
0
TEXT
8
ROOM-TEXT
10
650.0
20
17859.0
30
0.0
40
260.0
1
was Living Room  /  8776 x 6615  /  58.1 sqm
0
POLYLINE
8
ZONE-CONVERSION
66
1
70
1
10
0.0
20
0.0
30
0.0
0
VERTEX
8
ZONE-CONVERSION
10
500.0
20
19439.0
30
0.0
0
VERTEX
8
ZONE-CONVERSION
10
6229.0
20
19439.0
30
0.0
0
VERTEX
8
ZONE-CONVERSION
10
6229.0
20
23745.0
30
0.0
0
VERTEX
8
ZONE-CONVERSION
10
500.0
20
23745.0
30
0.0
0
SEQEND
8
ZONE-CONVERSION
0
TEXT
8
ROOM-TEXT
10
650.0
20
23045.0
30
0.0
40
330.0
1
CONVERSION HUB: CONSULTING 1 & OBSERVATION
0
TEXT
8
ROOM-TEXT
10
650.0
20
22565.0
30
0.0
40
260.0
1
was Bedroom  /  5729 x 4306  /  24.7 sqm
0
POLYLINE
8
ZONE-CONVERSION
66
1
70
1
10
0.0
20
0.0
30
0.0
0
VERTEX
8
ZONE-CONVERSION
10
500.0
20
24145.0
30
0.0
0
VERTEX
8
ZONE-CONVERSION
10
6190.0
20
24145.0
30
0.0
0
VERTEX
8
ZONE-CONVERSION
10
6190.0
20
27530.0
30
0.0
0
VERTEX
8
ZONE-CONVERSION
10
500.0
20
27530.0
30
0.0
0
SEQEND
8
ZONE-CONVERSION
0
TEXT
8
ROOM-TEXT
10
650.0
20
26830.0
30
0.0
40
330.0
1
CONVERSION HUB: CONSULTING 2
0
TEXT
8
ROOM-TEXT
10
650.0
20
26350.0
30
0.0
40
260.0
1
was Bedroom  /  5690 x 3385  /  19.3 sqm
0
POLYLINE
8
ZONE-DIAGNOSTICS
66
1
70
1
10
0.0
20
0.0
30
0.0
0
VERTEX
8
ZONE-DIAGNOSTICS
10
500.0
20
27930.0
30
0.0
0
VERTEX
8
ZONE-DIAGNOSTICS
10
5806.0
20
27930.0
30
0.0
0
VERTEX
8
ZONE-DIAGNOSTICS
10
5806.0
20
31365.0
30
0.0
0
VERTEX
8
ZONE-DIAGNOSTICS
10
500.0
20
31365.0
30
0.0
0
SEQEND
8
ZONE-DIAGNOSTICS
0
TEXT
8
ROOM-TEXT
10
650.0
20
30665.0
30
0.0
40
330.0
1
PHLEBOTOMY & SPECIMEN HANDLING
0
TEXT
8
ROOM-TEXT
10
650.0
20
30185.0
30
0.0
40
260.0
1
was Kitchen  /  5306 x 3435  /  18.2 sqm
0
POLYLINE
8
ZONE-DIAGNOSTICS
66
1
70
1
10
0.0
20
0.0
30
0.0
0
VERTEX
8
ZONE-DIAGNOSTICS
10
6206.0
20
27930.0
30
0.0
0
VERTEX
8
ZONE-DIAGNOSTICS
10
9216.0
20
27930.0
30
0.0
0
VERTEX
8
ZONE-DIAGNOSTICS
10
9216.0
20
32625.0
30
0.0
0
VERTEX
8
ZONE-DIAGNOSTICS
10
6206.0
20
32625.0
30
0.0
0
SEQEND
8
ZONE-DIAGNOSTICS
0
TEXT
8
ROOM-TEXT
10
6356.0
20
31925.0
30
0.0
40
330.0
1
DIGITAL X-RAY, LEAD SHIELDED
0
TEXT
8
ROOM-TEXT
10
6356.0
20
31445.0
30
0.0
40
260.0
1
was Bedroom  /  3010 x 4695  /  14.1 sqm
0
POLYLINE
8
ZONE-DIAGNOSTICS
66
1
70
1
10
0.0
20
0.0
30
0.0
0
VERTEX
8
ZONE-DIAGNOSTICS
10
500.0
20
33025.0
30
0.0
0
VERTEX
8
ZONE-DIAGNOSTICS
10
3670.0
20
33025.0
30
0.0
0
VERTEX
8
ZONE-DIAGNOSTICS
10
3670.0
20
37120.0
30
0.0
0
VERTEX
8
ZONE-DIAGNOSTICS
10
500.0
20
37120.0
30
0.0
0
SEQEND
8
ZONE-DIAGNOSTICS
0
TEXT
8
ROOM-TEXT
10
650.0
20
36420.0
30
0.0
40
330.0
1
ULTRASOUND & ECHOCARDIOGRAPHY
0
TEXT
8
ROOM-TEXT
10
650.0
20
35940.0
30
0.0
40
260.0
1
was Dining  /  3170 x 4095  /  13.0 sqm
0
POLYLINE
8
ZONE-CONVERSION
66
1
70
1
10
0.0
20
0.0
30
0.0
0
VERTEX
8
ZONE-CONVERSION
10
4070.0
20
33025.0
30
0.0
0
VERTEX
8
ZONE-CONVERSION
10
7830.0
20
33025.0
30
0.0
0
VERTEX
8
ZONE-CONVERSION
10
7830.0
20
35801.0
30
0.0
0
VERTEX
8
ZONE-CONVERSION
10
4070.0
20
35801.0
30
0.0
0
SEQEND
8
ZONE-CONVERSION
0
TEXT
8
ROOM-TEXT
10
4220.0
20
35101.0
30
0.0
40
330.0
1
CONVERSION HUB: CONSULTING 3 / COORDINATOR
0
TEXT
8
ROOM-TEXT
10
4220.0
20
34621.0
30
0.0
40
260.0
1
was Bedroom  /  3760 x 2776  /  10.4 sqm
0
POLYLINE
8
ZONE-DIAGNOSTICS
66
1
70
1
10
0.0
20
0.0
30
0.0
0
VERTEX
8
ZONE-DIAGNOSTICS
10
500.0
20
37520.0
30
0.0
0
VERTEX
8
ZONE-DIAGNOSTICS
10
4260.0
20
37520.0
30
0.0
0
VERTEX
8
ZONE-DIAGNOSTICS
10
4260.0
20
39600.0
30
0.0
0
VERTEX
8
ZONE-DIAGNOSTICS
10
500.0
20
39600.0
30
0.0
0
SEQEND
8
ZONE-DIAGNOSTICS
0
TEXT
8
ROOM-TEXT
10
650.0
20
38900.0
30
0.0
40
330.0
1
IMAGING REPORTING & CONTROL
0
TEXT
8
ROOM-TEXT
10
650.0
20
38420.0
30
0.0
40
260.0
1
was Bath  /  3760 x 2080  /  7.8 sqm
0
POLYLINE
8
ZONE-PHARMACY
66
1
70
1
10
0.0
20
0.0
30
0.0
0
VERTEX
8
ZONE-PHARMACY
10
4660.0
20
37520.0
30
0.0
0
VERTEX
8
ZONE-PHARMACY
10
7830.0
20
37520.0
30
0.0
0
VERTEX
8
ZONE-PHARMACY
10
7830.0
20
39425.0
30
0.0
0
VERTEX
8
ZONE-PHARMACY
10
4660.0
20
39425.0
30
0.0
0
SEQEND
8
ZONE-PHARMACY
0
TEXT
8
ROOM-TEXT
10
4810.0
20
38725.0
30
0.0
40
330.0
1
MEDICATION COLLECTION POINT
0
TEXT
8
ROOM-TEXT
10
4810.0
20
38245.0
30
0.0
40
260.0
1
was Store  /  3170 x 1905  /  6.0 sqm
0
POLYLINE
8
ZONE-COMMON
66
1
70
1
10
0.0
20
0.0
30
0.0
0
VERTEX
8
ZONE-COMMON
10
8230.0
20
37520.0
30
0.0
0
VERTEX
8
ZONE-COMMON
10
9930.0
20
37520.0
30
0.0
0
VERTEX
8
ZONE-COMMON
10
9930.0
20
40419.0
30
0.0
0
VERTEX
8
ZONE-COMMON
10
8230.0
20
40419.0
30
0.0
0
SEQEND
8
ZONE-COMMON
0
TEXT
8
ROOM-TEXT
10
8380.0
20
39719.0
30
0.0
40
330.0
1
PATIENT WC
0
TEXT
8
ROOM-TEXT
10
8380.0
20
39239.0
30
0.0
40
260.0
1
was Bath  /  1700 x 2899  /  4.9 sqm
0
POLYLINE
8
ZONE-COMMON
66
1
70
1
10
0.0
20
0.0
30
0.0
0
VERTEX
8
ZONE-COMMON
10
500.0
20
40819.0
30
0.0
0
VERTEX
8
ZONE-COMMON
10
1845.0
20
40819.0
30
0.0
0
VERTEX
8
ZONE-COMMON
10
1845.0
20
43289.0
30
0.0
0
VERTEX
8
ZONE-COMMON
10
500.0
20
43289.0
30
0.0
0
SEQEND
8
ZONE-COMMON
0
TEXT
8
ROOM-TEXT
10
650.0
20
42589.0
30
0.0
40
330.0
1
PATIENT WC
0
TEXT
8
ROOM-TEXT
10
650.0
20
42109.0
30
0.0
40
260.0
1
was Bath  /  1345 x 2470  /  3.3 sqm
0
POLYLINE
8
ZONE-COMMON
66
1
70
1
10
0.0
20
0.0
30
0.0
0
VERTEX
8
ZONE-COMMON
10
2245.0
20
40819.0
30
0.0
0
VERTEX
8
ZONE-COMMON
10
3575.0
20
40819.0
30
0.0
0
VERTEX
8
ZONE-COMMON
10
3575.0
20
42479.0
30
0.0
0
VERTEX
8
ZONE-COMMON
10
2245.0
20
42479.0
30
0.0
0
SEQEND
8
ZONE-COMMON
0
TEXT
8
ROOM-TEXT
10
2395.0
20
41779.0
30
0.0
40
330.0
1
PATIENT WC
0
TEXT
8
ROOM-TEXT
10
2395.0
20
41299.0
30
0.0
40
260.0
1
was V.T  /  1330 x 1660  /  2.2 sqm
0
POLYLINE
8
OUTLINE
66
1
70
1
10
0.0
20
0.0
30
0.0
0
VERTEX
8
OUTLINE
10
12800.0
20
0.0
30
0.0
0
VERTEX
8
OUTLINE
10
23300.0
20
0.0
30
0.0
0
VERTEX
8
OUTLINE
10
23300.0
20
43789.0
30
0.0
0
VERTEX
8
OUTLINE
10
12800.0
20
43789.0
30
0.0
0
SEQEND
8
OUTLINE
0
TEXT
8
TITLE
10
12800.0
20
45289.0
30
0.0
40
620.0
1
FIRST FLOOR
0
TEXT
8
TITLE
10
12800.0
20
44689.0
30
0.0
40
420.0
1
private medical plaza
0
TEXT
8
NOTES
10
12800.0
20
44139.0
30
0.0
40
360.0
1
true overall 24396 x 12345 mm  /  13 rooms  /  239 sqm allocated
0
POLYLINE
8
ZONE-PLAZA
66
1
70
1
10
0.0
20
0.0
30
0.0
0
VERTEX
8
ZONE-PLAZA
10
13300.0
20
500.0
30
0.0
0
VERTEX
8
ZONE-PLAZA
10
21585.0
20
500.0
30
0.0
0
VERTEX
8
ZONE-PLAZA
10
21585.0
20
6728.0
30
0.0
0
VERTEX
8
ZONE-PLAZA
10
13300.0
20
6728.0
30
0.0
0
SEQEND
8
ZONE-PLAZA
0
TEXT
8
ROOM-TEXT
10
13450.0
20
6028.0
30
0.0
40
330.0
1
CONSULTING 1-3 + SPINE  new partitions
0
TEXT
8
ROOM-TEXT
10
13450.0
20
5548.0
30
0.0
40
260.0
1
was Living Room  /  8285 x 6228  /  51.6 sqm
0
POLYLINE
8
ZONE-COMMON
66
1
70
1
10
0.0
20
0.0
30
0.0
0
VERTEX
8
ZONE-COMMON
10
13300.0
20
7128.0
30
0.0
0
VERTEX
8
ZONE-COMMON
10
19230.0
20
7128.0
30
0.0
0
VERTEX
8
ZONE-COMMON
10
19230.0
20
12868.0
30
0.0
0
VERTEX
8
ZONE-COMMON
10
13300.0
20
12868.0
30
0.0
0
SEQEND
8
ZONE-COMMON
0
TEXT
8
ROOM-TEXT
10
13450.0
20
12168.0
30
0.0
40
330.0
1
DOCTORS' & MEMBERS' LOUNGE  head of stairs
0
TEXT
8
ROOM-TEXT
10
13450.0
20
11688.0
30
0.0
40
260.0
1
was Living Room  /  5930 x 5740  /  34.0 sqm
0
POLYLINE
8
ZONE-PLAZA
66
1
70
1
10
0.0
20
0.0
30
0.0
0
VERTEX
8
ZONE-PLAZA
10
13300.0
20
13268.0
30
0.0
0
VERTEX
8
ZONE-PLAZA
10
17205.0
20
13268.0
30
0.0
0
VERTEX
8
ZONE-PLAZA
10
17205.0
20
19496.0
30
0.0
0
VERTEX
8
ZONE-PLAZA
10
13300.0
20
19496.0
30
0.0
0
SEQEND
8
ZONE-PLAZA
0
TEXT
8
ROOM-TEXT
10
13450.0
20
18796.0
30
0.0
40
330.0
1
FUE HAIR TRANSPLANT SUITE
0
TEXT
8
ROOM-TEXT
10
13450.0
20
18316.0
30
0.0
40
260.0
1
was Bedroom  /  3905 x 6228  /  24.3 sqm
0
POLYLINE
8
ZONE-CONVERSION
66
1
70
1
10
0.0
20
0.0
30
0.0
0
VERTEX
8
ZONE-CONVERSION
10
13300.0
20
19896.0
30
0.0
0
VERTEX
8
ZONE-CONVERSION
10
20570.0
20
19896.0
30
0.0
0
VERTEX
8
ZONE-CONVERSION
10
20570.0
20
22976.0
30
0.0
0
VERTEX
8
ZONE-CONVERSION
10
13300.0
20
22976.0
30
0.0
0
SEQEND
8
ZONE-CONVERSION
0
TEXT
8
ROOM-TEXT
10
13450.0
20
22276.0
30
0.0
40
330.0
1
CASE CONFERENCE, MDT & TELEMEDICINE
0
TEXT
8
ROOM-TEXT
10
13450.0
20
21796.0
30
0.0
40
260.0
1
was Playroom  /  7270 x 3080  /  22.4 sqm
0
POLYLINE
8
ZONE-PLAZA
66
1
70
1
10
0.0
20
0.0
30
0.0
0
VERTEX
8
ZONE-PLAZA
10
13300.0
20
23376.0
30
0.0
0
VERTEX
8
ZONE-PLAZA
10
19225.0
20
23376.0
30
0.0
0
VERTEX
8
ZONE-PLAZA
10
19225.0
20
26716.0
30
0.0
0
VERTEX
8
ZONE-PLAZA
10
13300.0
20
26716.0
30
0.0
0
SEQEND
8
ZONE-PLAZA
0
TEXT
8
ROOM-TEXT
10
13450.0
20
26016.0
30
0.0
40
330.0
1
CONSULTING ROOM 4  en-suite WC
0
TEXT
8
ROOM-TEXT
10
13450.0
20
25536.0
30
0.0
40
260.0
1
was Bedroom  /  5925 x 3340  /  19.8 sqm
0
POLYLINE
8
ZONE-PLAZA
66
1
70
1
10
0.0
20
0.0
30
0.0
0
VERTEX
8
ZONE-PLAZA
10
13300.0
20
27116.0
30
0.0
0
VERTEX
8
ZONE-PLAZA
10
17145.0
20
27116.0
30
0.0
0
VERTEX
8
ZONE-PLAZA
10
17145.0
20
32261.0
30
0.0
0
VERTEX
8
ZONE-PLAZA
10
13300.0
20
32261.0
30
0.0
0
SEQEND
8
ZONE-PLAZA
0
TEXT
8
ROOM-TEXT
10
13450.0
20
31561.0
30
0.0
40
330.0
1
CONSULTING ROOM 5  en-suite WC
0
TEXT
8
ROOM-TEXT
10
13450.0
20
31081.0
30
0.0
40
260.0
1
was Bedroom  /  3845 x 5145  /  19.8 sqm
0
POLYLINE
8
ZONE-PROCEDURE
66
1
70
1
10
0.0
20
0.0
30
0.0
0
VERTEX
8
ZONE-PROCEDURE
10
17545.0
20
27116.0
30
0.0
0
VERTEX
8
ZONE-PROCEDURE
10
22245.0
20
27116.0
30
0.0
0
VERTEX
8
ZONE-PROCEDURE
10
22245.0
20
30264.0
30
0.0
0
VERTEX
8
ZONE-PROCEDURE
10
17545.0
20
30264.0
30
0.0
0
SEQEND
8
ZONE-PROCEDURE
0
TEXT
8
ROOM-TEXT
10
17695.0
20
29564.0
30
0.0
40
330.0
1
PROCEDURE ROOM  existing water & drainage
0
TEXT
8
ROOM-TEXT
10
17695.0
20
29084.0
30
0.0
40
260.0
1
was Kitchen  /  4700 x 3148  /  14.8 sqm
0
POLYLINE
8
ZONE-CONVERSION
66
1
70
1
10
0.0
20
0.0
30
0.0
0
VERTEX
8
ZONE-CONVERSION
10
13300.0
20
32661.0
30
0.0
0
VERTEX
8
ZONE-CONVERSION
10
18990.0
20
32661.0
30
0.0
0
VERTEX
8
ZONE-CONVERSION
10
18990.0
20
35069.0
30
0.0
0
VERTEX
8
ZONE-CONVERSION
10
13300.0
20
35069.0
30
0.0
0
SEQEND
8
ZONE-CONVERSION
0
TEXT
8
ROOM-TEXT
10
13450.0
20
34369.0
30
0.0
40
330.0
1
COORDINATOR & COUNSELLING
0
TEXT
8
ROOM-TEXT
10
13450.0
20
33889.0
30
0.0
40
260.0
1
was Bedroom  /  5690 x 2408  /  13.7 sqm
0
POLYLINE
8
ZONE-BOH
66
1
70
1
10
0.0
20
0.0
30
0.0
0
VERTEX
8
ZONE-BOH
10
13300.0
20
35469.0
30
0.0
0
VERTEX
8
ZONE-BOH
10
17110.0
20
35469.0
30
0.0
0
VERTEX
8
ZONE-BOH
10
17110.0
20
38069.0
30
0.0
0
VERTEX
8
ZONE-BOH
10
13300.0
20
38069.0
30
0.0
0
SEQEND
8
ZONE-BOH
0
TEXT
8
ROOM-TEXT
10
13450.0
20
37369.0
30
0.0
40
330.0
1
LINEN & CONSUMABLES
0
TEXT
8
ROOM-TEXT
10
13450.0
20
36889.0
30
0.0
40
260.0
1
was Store  /  3810 x 2600  /  9.9 sqm
0
POLYLINE
8
ZONE-COMMON
66
1
70
1
10
0.0
20
0.0
30
0.0
0
VERTEX
8
ZONE-COMMON
10
17510.0
20
35469.0
30
0.0
0
VERTEX
8
ZONE-COMMON
10
21975.0
20
35469.0
30
0.0
0
VERTEX
8
ZONE-COMMON
10
21975.0
20
37569.0
30
0.0
0
VERTEX
8
ZONE-COMMON
10
17510.0
20
37569.0
30
0.0
0
SEQEND
8
ZONE-COMMON
0
TEXT
8
ROOM-TEXT
10
17660.0
20
36869.0
30
0.0
40
330.0
1
STERILISING  existing water & drainage
0
TEXT
8
ROOM-TEXT
10
17660.0
20
36389.0
30
0.0
40
260.0
1
was Bath  /  4465 x 2100  /  9.4 sqm
0
POLYLINE
8
ZONE-COMMON
66
1
70
1
10
0.0
20
0.0
30
0.0
0
VERTEX
8
ZONE-COMMON
10
13300.0
20
38469.0
30
0.0
0
VERTEX
8
ZONE-COMMON
10
16888.0
20
38469.0
30
0.0
0
VERTEX
8
ZONE-COMMON
10
16888.0
20
40459.0
30
0.0
0
VERTEX
8
ZONE-COMMON
10
13300.0
20
40459.0
30
0.0
0
SEQEND
8
ZONE-COMMON
0
TEXT
8
ROOM-TEXT
10
13450.0
20
39759.0
30
0.0
40
330.0
1
PATIENT WC
0
TEXT
8
ROOM-TEXT
10
13450.0
20
39279.0
30
0.0
40
260.0
1
was Bath  /  3588 x 1990  /  7.1 sqm
0
POLYLINE
8
ZONE-COMMON
66
1
70
1
10
0.0
20
0.0
30
0.0
0
VERTEX
8
ZONE-COMMON
10
17288.0
20
38469.0
30
0.0
0
VERTEX
8
ZONE-COMMON
10
20793.0
20
38469.0
30
0.0
0
VERTEX
8
ZONE-COMMON
10
20793.0
20
40247.0
30
0.0
0
VERTEX
8
ZONE-COMMON
10
17288.0
20
40247.0
30
0.0
0
SEQEND
8
ZONE-COMMON
0
TEXT
8
ROOM-TEXT
10
17438.0
20
39547.0
30
0.0
40
330.0
1
TERRACE, off the lounge
0
TEXT
8
ROOM-TEXT
10
17438.0
20
39067.0
30
0.0
40
260.0
1
was Balcony  /  3505 x 1778  /  6.2 sqm
0
POLYLINE
8
ZONE-DIAGNOSTICS
66
1
70
1
10
0.0
20
0.0
30
0.0
0
VERTEX
8
ZONE-DIAGNOSTICS
10
13300.0
20
40859.0
30
0.0
0
VERTEX
8
ZONE-DIAGNOSTICS
10
15640.0
20
40859.0
30
0.0
0
VERTEX
8
ZONE-DIAGNOSTICS
10
15640.0
20
43289.0
30
0.0
0
VERTEX
8
ZONE-DIAGNOSTICS
10
13300.0
20
43289.0
30
0.0
0
SEQEND
8
ZONE-DIAGNOSTICS
0
TEXT
8
ROOM-TEXT
10
13450.0
20
42589.0
30
0.0
40
330.0
1
PHLEBOTOMY DRAW POINT
0
TEXT
8
ROOM-TEXT
10
13450.0
20
42109.0
30
0.0
40
260.0
1
was Bath  /  2340 x 2430  /  5.7 sqm
0
POLYLINE
8
OUTLINE
66
1
70
1
10
0.0
20
0.0
30
0.0
0
VERTEX
8
OUTLINE
10
25600.0
20
32339.0
30
0.0
0
VERTEX
8
OUTLINE
10
36100.0
20
32339.0
30
0.0
0
VERTEX
8
OUTLINE
10
36100.0
20
43789.0
30
0.0
0
VERTEX
8
OUTLINE
10
25600.0
20
43789.0
30
0.0
0
SEQEND
8
OUTLINE
0
TEXT
8
TITLE
10
25600.0
20
45289.0
30
0.0
40
620.0
1
GUEST CHALET
0
TEXT
8
TITLE
10
25600.0
20
44689.0
30
0.0
40
420.0
1
Medbury Diagnostics laboratory
0
TEXT
8
NOTES
10
25600.0
20
44139.0
30
0.0
40
360.0
1
true overall 9380 x 10915 mm  /  6 rooms  /  61 sqm allocated
0
POLYLINE
8
ZONE-DIAGNOSTICS
66
1
70
1
10
0.0
20
0.0
30
0.0
0
VERTEX
8
ZONE-DIAGNOSTICS
10
26100.0
20
32839.0
30
0.0
0
VERTEX
8
ZONE-DIAGNOSTICS
10
29800.0
20
32839.0
30
0.0
0
VERTEX
8
ZONE-DIAGNOSTICS
10
29800.0
20
37229.0
30
0.0
0
VERTEX
8
ZONE-DIAGNOSTICS
10
26100.0
20
37229.0
30
0.0
0
SEQEND
8
ZONE-DIAGNOSTICS
0
TEXT
8
ROOM-TEXT
10
26250.0
20
36529.0
30
0.0
40
330.0
1
LABORATORY  extension
0
TEXT
8
ROOM-TEXT
10
26250.0
20
36049.0
30
0.0
40
260.0
1
was Bed Room  /  3700 x 4390  /  16.2 sqm
0
POLYLINE
8
ZONE-DIAGNOSTICS
66
1
70
1
10
0.0
20
0.0
30
0.0
0
VERTEX
8
ZONE-DIAGNOSTICS
10
30200.0
20
32839.0
30
0.0
0
VERTEX
8
ZONE-DIAGNOSTICS
10
35190.0
20
32839.0
30
0.0
0
VERTEX
8
ZONE-DIAGNOSTICS
10
35190.0
20
35199.0
30
0.0
0
VERTEX
8
ZONE-DIAGNOSTICS
10
30200.0
20
35199.0
30
0.0
0
SEQEND
8
ZONE-DIAGNOSTICS
0
TEXT
8
ROOM-TEXT
10
30350.0
20
34499.0
30
0.0
40
330.0
1
REPORTING OFFICE
0
TEXT
8
ROOM-TEXT
10
30350.0
20
34019.0
30
0.0
40
260.0
1
was Living Room  /  4990 x 2360  /  11.8 sqm
0
POLYLINE
8
ZONE-DIAGNOSTICS
66
1
70
1
10
0.0
20
0.0
30
0.0
0
VERTEX
8
ZONE-DIAGNOSTICS
10
26100.0
20
37629.0
30
0.0
0
VERTEX
8
ZONE-DIAGNOSTICS
10
30030.0
20
37629.0
30
0.0
0
VERTEX
8
ZONE-DIAGNOSTICS
10
30030.0
20
40559.0
30
0.0
0
VERTEX
8
ZONE-DIAGNOSTICS
10
26100.0
20
40559.0
30
0.0
0
SEQEND
8
ZONE-DIAGNOSTICS
0
TEXT
8
ROOM-TEXT
10
26250.0
20
39859.0
30
0.0
40
330.0
1
LABORATORY  benching & analysers
0
TEXT
8
ROOM-TEXT
10
26250.0
20
39379.0
30
0.0
40
260.0
1
was Kitchen  /  3930 x 2930  /  11.5 sqm
0
POLYLINE
8
ZONE-DIAGNOSTICS
66
1
70
1
10
0.0
20
0.0
30
0.0
0
VERTEX
8
ZONE-DIAGNOSTICS
10
30430.0
20
37629.0
30
0.0
0
VERTEX
8
ZONE-DIAGNOSTICS
10
33790.0
20
37629.0
30
0.0
0
VERTEX
8
ZONE-DIAGNOSTICS
10
33790.0
20
41034.0
30
0.0
0
VERTEX
8
ZONE-DIAGNOSTICS
10
30430.0
20
41034.0
30
0.0
0
SEQEND
8
ZONE-DIAGNOSTICS
0
TEXT
8
ROOM-TEXT
10
30580.0
20
40334.0
30
0.0
40
330.0
1
SPECIMEN RECEPTION & SORTING
0
TEXT
8
ROOM-TEXT
10
30580.0
20
39854.0
30
0.0
40
260.0
1
was Bed Room  /  3360 x 3405  /  11.4 sqm
0
POLYLINE
8
ZONE-DIAGNOSTICS
66
1
70
1
10
0.0
20
0.0
30
0.0
0
VERTEX
8
ZONE-DIAGNOSTICS
10
26100.0
20
41434.0
30
0.0
0
VERTEX
8
ZONE-DIAGNOSTICS
10
29005.0
20
41434.0
30
0.0
0
VERTEX
8
ZONE-DIAGNOSTICS
10
29005.0
20
43289.0
30
0.0
0
VERTEX
8
ZONE-DIAGNOSTICS
10
26100.0
20
43289.0
30
0.0
0
SEQEND
8
ZONE-DIAGNOSTICS
0
TEXT
8
ROOM-TEXT
10
26250.0
20
42589.0
30
0.0
40
330.0
1
REAGENT COLD CHAIN & STORE
0
TEXT
8
ROOM-TEXT
10
26250.0
20
42109.0
30
0.0
40
260.0
1
was Bath  /  2905 x 1855  /  5.4 sqm
0
POLYLINE
8
ZONE-COMMON
66
1
70
1
10
0.0
20
0.0
30
0.0
0
VERTEX
8
ZONE-COMMON
10
29405.0
20
41434.0
30
0.0
0
VERTEX
8
ZONE-COMMON
10
32080.0
20
41434.0
30
0.0
0
VERTEX
8
ZONE-COMMON
10
32080.0
20
43049.0
30
0.0
0
VERTEX
8
ZONE-COMMON
10
29405.0
20
43049.0
30
0.0
0
SEQEND
8
ZONE-COMMON
0
TEXT
8
ROOM-TEXT
10
29555.0
20
42349.0
30
0.0
40
330.0
1
STAFF WC
0
TEXT
8
ROOM-TEXT
10
29555.0
20
41869.0
30
0.0
40
260.0
1
was Bath  /  2675 x 1615  /  4.3 sqm
0
POLYLINE
8
OUTLINE
66
1
70
1
10
0.0
20
0.0
30
0.0
0
VERTEX
8
OUTLINE
10
38400.0
20
36650.0
30
0.0
0
VERTEX
8
OUTLINE
10
48900.0
20
36650.0
30
0.0
0
VERTEX
8
OUTLINE
10
48900.0
20
43789.0
30
0.0
0
VERTEX
8
OUTLINE
10
38400.0
20
43789.0
30
0.0
0
SEQEND
8
OUTLINE
0
TEXT
8
TITLE
10
38400.0
20
45289.0
30
0.0
40
620.0
1
BOYS' QUARTERS
0
TEXT
8
TITLE
10
38400.0
20
44689.0
30
0.0
40
420.0
1
Medbury Pharmaceuticals
0
TEXT
8
NOTES
10
38400.0
20
44139.0
30
0.0
40
360.0
1
true overall 12515 x 4120 mm  /  4 rooms  /  37 sqm allocated
0
POLYLINE
8
ZONE-PHARMACY
66
1
70
1
10
0.0
20
0.0
30
0.0
0
VERTEX
8
ZONE-PHARMACY
10
38900.0
20
37150.0
30
0.0
0
VERTEX
8
ZONE-PHARMACY
10
43529.0
20
37150.0
30
0.0
0
VERTEX
8
ZONE-PHARMACY
10
43529.0
20
40810.0
30
0.0
0
VERTEX
8
ZONE-PHARMACY
10
38900.0
20
40810.0
30
0.0
0
SEQEND
8
ZONE-PHARMACY
0
TEXT
8
ROOM-TEXT
10
39050.0
20
40110.0
30
0.0
40
330.0
1
DISPENSARY & STOCK
0
TEXT
8
ROOM-TEXT
10
39050.0
20
39630.0
30
0.0
40
260.0
1
was Bed Room  /  4629 x 3660  /  16.9 sqm
0
POLYLINE
8
ZONE-PHARMACY
66
1
70
1
10
0.0
20
0.0
30
0.0
0
VERTEX
8
ZONE-PHARMACY
10
43929.0
20
37150.0
30
0.0
0
VERTEX
8
ZONE-PHARMACY
10
47990.0
20
37150.0
30
0.0
0
VERTEX
8
ZONE-PHARMACY
10
47990.0
20
40810.0
30
0.0
0
VERTEX
8
ZONE-PHARMACY
10
43929.0
20
40810.0
30
0.0
0
SEQEND
8
ZONE-PHARMACY
0
TEXT
8
ROOM-TEXT
10
44079.0
20
40110.0
30
0.0
40
330.0
1
PRODUCT & SKINCARE RETAIL STORE
0
TEXT
8
ROOM-TEXT
10
44079.0
20
39630.0
30
0.0
40
260.0
1
was Bed Room  /  4061 x 3660  /  14.9 sqm
0
POLYLINE
8
ZONE-PHARMACY
66
1
70
1
10
0.0
20
0.0
30
0.0
0
VERTEX
8
ZONE-PHARMACY
10
38900.0
20
41210.0
30
0.0
0
VERTEX
8
ZONE-PHARMACY
10
40275.0
20
41210.0
30
0.0
0
VERTEX
8
ZONE-PHARMACY
10
40275.0
20
43289.0
30
0.0
0
VERTEX
8
ZONE-PHARMACY
10
38900.0
20
43289.0
30
0.0
0
SEQEND
8
ZONE-PHARMACY
0
TEXT
8
ROOM-TEXT
10
39050.0
20
42589.0
30
0.0
40
330.0
1
CONTROLLED DRUGS STORE
0
TEXT
8
ROOM-TEXT
10
39050.0
20
42109.0
30
0.0
40
260.0
1
was Bath  /  1375 x 2079  /  2.9 sqm
0
POLYLINE
8
ZONE-PHARMACY
66
1
70
1
10
0.0
20
0.0
30
0.0
0
VERTEX
8
ZONE-PHARMACY
10
40675.0
20
41210.0
30
0.0
0
VERTEX
8
ZONE-PHARMACY
10
41975.0
20
41210.0
30
0.0
0
VERTEX
8
ZONE-PHARMACY
10
41975.0
20
43289.0
30
0.0
0
VERTEX
8
ZONE-PHARMACY
10
40675.0
20
43289.0
30
0.0
0
SEQEND
8
ZONE-PHARMACY
0
TEXT
8
ROOM-TEXT
10
40825.0
20
42589.0
30
0.0
40
330.0
1
COLD CHAIN
0
TEXT
8
ROOM-TEXT
10
40825.0
20
42109.0
30
0.0
40
260.0
1
was Bath  /  1300 x 2079  /  2.7 sqm
0
POLYLINE
8
OUTLINE
66
1
70
1
10
0.0
20
0.0
30
0.0
0
VERTEX
8
OUTLINE
10
51200.0
20
28089.0
30
0.0
0
VERTEX
8
OUTLINE
10
61700.0
20
28089.0
30
0.0
0
VERTEX
8
OUTLINE
10
61700.0
20
43789.0
30
0.0
0
VERTEX
8
OUTLINE
10
51200.0
20
43789.0
30
0.0
0
SEQEND
8
OUTLINE
0
TEXT
8
TITLE
10
51200.0
20
45289.0
30
0.0
40
620.0
1
DAY CASE THEATRE
0
TEXT
8
TITLE
10
51200.0
20
44689.0
30
0.0
40
420.0
1
ground-level unit, level trolley access
0
TEXT
8
NOTES
10
51200.0
20
44139.0
30
0.0
40
360.0
1
true overall 11000 x 8000 mm  /  7 rooms  /  81 sqm allocated
0
POLYLINE
8
ZONE-THEATRE
66
1
70
1
10
0.0
20
0.0
30
0.0
0
VERTEX
8
ZONE-THEATRE
10
51700.0
20
28589.0
30
0.0
0
VERTEX
8
ZONE-THEATRE
10
57700.0
20
28589.0
30
0.0
0
VERTEX
8
ZONE-THEATRE
10
57700.0
20
34089.0
30
0.0
0
VERTEX
8
ZONE-THEATRE
10
51700.0
20
34089.0
30
0.0
0
SEQEND
8
ZONE-THEATRE
0
TEXT
8
ROOM-TEXT
10
51850.0
20
33389.0
30
0.0
40
330.0
1
OPERATING THEATRE
0
TEXT
8
ROOM-TEXT
10
51850.0
20
32909.0
30
0.0
40
260.0
1
was new build  /  6000 x 5500  /  33.0 sqm
0
POLYLINE
8
ZONE-THEATRE
66
1
70
1
10
0.0
20
0.0
30
0.0
0
VERTEX
8
ZONE-THEATRE
10
51700.0
20
34489.0
30
0.0
0
VERTEX
8
ZONE-THEATRE
10
56200.0
20
34489.0
30
0.0
0
VERTEX
8
ZONE-THEATRE
10
56200.0
20
37689.0
30
0.0
0
VERTEX
8
ZONE-THEATRE
10
51700.0
20
37689.0
30
0.0
0
SEQEND
8
ZONE-THEATRE
0
TEXT
8
ROOM-TEXT
10
51850.0
20
36989.0
30
0.0
40
330.0
1
MONITORED RECOVERY, 2 BAYS
0
TEXT
8
ROOM-TEXT
10
51850.0
20
36509.0
30
0.0
40
260.0
1
was new build  /  4500 x 3200  /  14.4 sqm
0
POLYLINE
8
ZONE-THEATRE
66
1
70
1
10
0.0
20
0.0
30
0.0
0
VERTEX
8
ZONE-THEATRE
10
56600.0
20
34489.0
30
0.0
0
VERTEX
8
ZONE-THEATRE
10
59800.0
20
34489.0
30
0.0
0
VERTEX
8
ZONE-THEATRE
10
59800.0
20
37289.0
30
0.0
0
VERTEX
8
ZONE-THEATRE
10
56600.0
20
37289.0
30
0.0
0
SEQEND
8
ZONE-THEATRE
0
TEXT
8
ROOM-TEXT
10
56750.0
20
36589.0
30
0.0
40
330.0
1
ANAESTHETIC / PREP ROOM
0
TEXT
8
ROOM-TEXT
10
56750.0
20
36109.0
30
0.0
40
260.0
1
was new build  /  3200 x 2800  /  9.0 sqm
0
POLYLINE
8
ZONE-THEATRE
66
1
70
1
10
0.0
20
0.0
30
0.0
0
VERTEX
8
ZONE-THEATRE
10
51700.0
20
38089.0
30
0.0
0
VERTEX
8
ZONE-THEATRE
10
54500.0
20
38089.0
30
0.0
0
VERTEX
8
ZONE-THEATRE
10
54500.0
20
40589.0
30
0.0
0
VERTEX
8
ZONE-THEATRE
10
51700.0
20
40589.0
30
0.0
0
SEQEND
8
ZONE-THEATRE
0
TEXT
8
ROOM-TEXT
10
51850.0
20
39889.0
30
0.0
40
330.0
1
STERILE STORE
0
TEXT
8
ROOM-TEXT
10
51850.0
20
39409.0
30
0.0
40
260.0
1
was new build  /  2800 x 2500  /  7.0 sqm
0
POLYLINE
8
ZONE-THEATRE
66
1
70
1
10
0.0
20
0.0
30
0.0
0
VERTEX
8
ZONE-THEATRE
10
54900.0
20
38089.0
30
0.0
0
VERTEX
8
ZONE-THEATRE
10
57900.0
20
38089.0
30
0.0
0
VERTEX
8
ZONE-THEATRE
10
57900.0
20
40289.0
30
0.0
0
VERTEX
8
ZONE-THEATRE
10
54900.0
20
40289.0
30
0.0
0
SEQEND
8
ZONE-THEATRE
0
TEXT
8
ROOM-TEXT
10
55050.0
20
39589.0
30
0.0
40
330.0
1
AHU & ISOLATED POWER PLANT, external
0
TEXT
8
ROOM-TEXT
10
55050.0
20
39109.0
30
0.0
40
260.0
1
was new build  /  3000 x 2200  /  6.6 sqm
0
POLYLINE
8
ZONE-THEATRE
66
1
70
1
10
0.0
20
0.0
30
0.0
0
VERTEX
8
ZONE-THEATRE
10
58300.0
20
38089.0
30
0.0
0
VERTEX
8
ZONE-THEATRE
10
60700.0
20
38089.0
30
0.0
0
VERTEX
8
ZONE-THEATRE
10
60700.0
20
40589.0
30
0.0
0
VERTEX
8
ZONE-THEATRE
10
58300.0
20
40589.0
30
0.0
0
SEQEND
8
ZONE-THEATRE
0
TEXT
8
ROOM-TEXT
10
58450.0
20
39889.0
30
0.0
40
330.0
1
DIRTY UTILITY
0
TEXT
8
ROOM-TEXT
10
58450.0
20
39409.0
30
0.0
40
260.0
1
was new build  /  2400 x 2500  /  6.0 sqm
0
POLYLINE
8
ZONE-THEATRE
66
1
70
1
10
0.0
20
0.0
30
0.0
0
VERTEX
8
ZONE-THEATRE
10
51700.0
20
40989.0
30
0.0
0
VERTEX
8
ZONE-THEATRE
10
53900.0
20
40989.0
30
0.0
0
VERTEX
8
ZONE-THEATRE
10
53900.0
20
43289.0
30
0.0
0
VERTEX
8
ZONE-THEATRE
10
51700.0
20
43289.0
30
0.0
0
SEQEND
8
ZONE-THEATRE
0
TEXT
8
ROOM-TEXT
10
51850.0
20
42589.0
30
0.0
40
330.0
1
SCRUB
0
TEXT
8
ROOM-TEXT
10
51850.0
20
42109.0
30
0.0
40
260.0
1
was new build  /  2200 x 2300  /  5.1 sqm
0
TEXT
8
TITLE
10
0.0
20
-4800.0
30
0.0
40
700.0
1
ZONE LEGEND
0
POLYLINE
8
ZONE-CONVERSION
66
1
70
1
10
0.0
20
0.0
30
0.0
0
VERTEX
8
ZONE-CONVERSION
10
0.0
20
-5800.0
30
0.0
0
VERTEX
8
ZONE-CONVERSION
10
1400.0
20
-5800.0
30
0.0
0
VERTEX
8
ZONE-CONVERSION
10
1400.0
20
-5200.0
30
0.0
0
VERTEX
8
ZONE-CONVERSION
10
0.0
20
-5200.0
30
0.0
0
SEQEND
8
ZONE-CONVERSION
0
TEXT
8
ROOM-TEXT
10
1700.0
20
-5670.0
30
0.0
40
380.0
1
CONVERSION   Conversion hub, Alameda anchors
0
POLYLINE
8
ZONE-THEATRE
66
1
70
1
10
0.0
20
0.0
30
0.0
0
VERTEX
8
ZONE-THEATRE
10
0.0
20
-6700.0
30
0.0
0
VERTEX
8
ZONE-THEATRE
10
1400.0
20
-6700.0
30
0.0
0
VERTEX
8
ZONE-THEATRE
10
1400.0
20
-6100.0
30
0.0
0
VERTEX
8
ZONE-THEATRE
10
0.0
20
-6100.0
30
0.0
0
SEQEND
8
ZONE-THEATRE
0
TEXT
8
ROOM-TEXT
10
1700.0
20
-6570.0
30
0.0
40
380.0
1
THEATRE   Day case theatre suite, proposed
0
POLYLINE
8
ZONE-PROCEDURE
66
1
70
1
10
0.0
20
0.0
30
0.0
0
VERTEX
8
ZONE-PROCEDURE
10
0.0
20
-7600.0
30
0.0
0
VERTEX
8
ZONE-PROCEDURE
10
1400.0
20
-7600.0
30
0.0
0
VERTEX
8
ZONE-PROCEDURE
10
1400.0
20
-7000.0
30
0.0
0
VERTEX
8
ZONE-PROCEDURE
10
0.0
20
-7000.0
30
0.0
0
SEQEND
8
ZONE-PROCEDURE
0
TEXT
8
ROOM-TEXT
10
1700.0
20
-7470.0
30
0.0
40
380.0
1
PROCEDURE   Treatment room
0
POLYLINE
8
ZONE-PLAZA
66
1
70
1
10
0.0
20
0.0
30
0.0
0
VERTEX
8
ZONE-PLAZA
10
0.0
20
-8500.0
30
0.0
0
VERTEX
8
ZONE-PLAZA
10
1400.0
20
-8500.0
30
0.0
0
VERTEX
8
ZONE-PLAZA
10
1400.0
20
-7900.0
30
0.0
0
VERTEX
8
ZONE-PLAZA
10
0.0
20
-7900.0
30
0.0
0
SEQEND
8
ZONE-PLAZA
0
TEXT
8
ROOM-TEXT
10
1700.0
20
-8370.0
30
0.0
40
380.0
1
PLAZA   Private consulting plaza
0
POLYLINE
8
ZONE-DIAGNOSTICS
66
1
70
1
10
0.0
20
0.0
30
0.0
0
VERTEX
8
ZONE-DIAGNOSTICS
10
0.0
20
-9400.0
30
0.0
0
VERTEX
8
ZONE-DIAGNOSTICS
10
1400.0
20
-9400.0
30
0.0
0
VERTEX
8
ZONE-DIAGNOSTICS
10
1400.0
20
-8800.0
30
0.0
0
VERTEX
8
ZONE-DIAGNOSTICS
10
0.0
20
-8800.0
30
0.0
0
SEQEND
8
ZONE-DIAGNOSTICS
0
TEXT
8
ROOM-TEXT
10
1700.0
20
-9270.0
30
0.0
40
380.0
1
DIAGNOSTICS   Medbury Diagnostics
0
POLYLINE
8
ZONE-PHARMACY
66
1
70
1
10
0.0
20
0.0
30
0.0
0
VERTEX
8
ZONE-PHARMACY
10
0.0
20
-10300.0
30
0.0
0
VERTEX
8
ZONE-PHARMACY
10
1400.0
20
-10300.0
30
0.0
0
VERTEX
8
ZONE-PHARMACY
10
1400.0
20
-9700.0
30
0.0
0
VERTEX
8
ZONE-PHARMACY
10
0.0
20
-9700.0
30
0.0
0
SEQEND
8
ZONE-PHARMACY
0
TEXT
8
ROOM-TEXT
10
1700.0
20
-10170.0
30
0.0
40
380.0
1
PHARMACY   Medbury Pharmaceuticals
0
POLYLINE
8
ZONE-COMMON
66
1
70
1
10
0.0
20
0.0
30
0.0
0
VERTEX
8
ZONE-COMMON
10
0.0
20
-11200.0
30
0.0
0
VERTEX
8
ZONE-COMMON
10
1400.0
20
-11200.0
30
0.0
0
VERTEX
8
ZONE-COMMON
10
1400.0
20
-10600.0
30
0.0
0
VERTEX
8
ZONE-COMMON
10
0.0
20
-10600.0
30
0.0
0
SEQEND
8
ZONE-COMMON
0
TEXT
8
ROOM-TEXT
10
1700.0
20
-11070.0
30
0.0
40
380.0
1
COMMON   Reception, circulation, WC
0
POLYLINE
8
ZONE-BOH
66
1
70
1
10
0.0
20
0.0
30
0.0
0
VERTEX
8
ZONE-BOH
10
0.0
20
-12100.0
30
0.0
0
VERTEX
8
ZONE-BOH
10
1400.0
20
-12100.0
30
0.0
0
VERTEX
8
ZONE-BOH
10
1400.0
20
-11500.0
30
0.0
0
VERTEX
8
ZONE-BOH
10
0.0
20
-11500.0
30
0.0
0
SEQEND
8
ZONE-BOH
0
TEXT
8
ROOM-TEXT
10
1700.0
20
-11970.0
30
0.0
40
380.0
1
BOH   Back of house
0
TEXT
8
NOTES
10
28000.0
20
-4400.0
30
0.0
40
380.0
1
LYFE PLACE ABUJA  /  SPACE ALLOCATION  /  Consult for Africa  /  units mm
0
TEXT
8
NOTES
10
28000.0
20
-5020.0
30
0.0
40
380.0
1

0
TEXT
8
NOTES
10
28000.0
20
-5640.0
30
0.0
40
380.0
1
THIS IS AN ALLOCATION SCHEDULE DRAWN TO SCALE, NOT A FLOOR PLAN.
0
TEXT
8
NOTES
10
28000.0
20
-6260.0
30
0.0
40
380.0
1
Room rectangles carry TRUE areas taken from the dimension strings on the as-built
0
TEXT
8
NOTES
10
28000.0
20
-6880.0
30
0.0
40
380.0
1
drawings, and are packed into equal-width columns for legibility. Positions do NOT
0
TEXT
8
NOTES
10
28000.0
20
-7500.0
30
0.0
40
380.0
1
represent locations. Wall centrelines cannot be derived reliably from the as-built
0
TEXT
8
NOTES
10
28000.0
20
-8120.0
30
0.0
40
380.0
1
PDFs. Overlay the allocation on the real CAD.
0
TEXT
8
NOTES
10
28000.0
20
-8740.0
30
0.0
40
380.0
1

0
TEXT
8
NOTES
10
28000.0
20
-9360.0
30
0.0
40
380.0
1
CAPACITY FINDINGS
0
TEXT
8
NOTES
10
28000.0
20
-9980.0
30
0.0
40
380.0
1
1. The first floor yields 9 generous consulting rooms. Ten only if the 24.3 sqm
0
TEXT
8
NOTES
10
28000.0
20
-10600.0
30
0.0
40
380.0
1
   bedroom is subdivided. The financial model assumes 10.
0
TEXT
8
NOTES
10
28000.0
20
-11220.0
30
0.0
40
380.0
1
2. No single ground-floor room reaches the 28 to 30 sqm that a clean procedure room
0
TEXT
8
NOTES
10
28000.0
20
-11840.0
30
0.0
40
380.0
1
   with an integral recovery bay requires. Combining the 19.3 sqm bedroom with its
0
TEXT
8
NOTES
10
28000.0
20
-12460.0
30
0.0
40
380.0
1
   7.8 sqm en-suite gives 27.1 sqm on one wall removal, and the bath position gives
0
TEXT
8
NOTES
10
28000.0
20
-13080.0
30
0.0
40
380.0
1
   plumbing for the scrub.
0
TEXT
8
NOTES
10
28000.0
20
-13700.0
30
0.0
40
380.0
1
3. Only ONE FUE suite fits, in the 24.7 sqm bedroom. Not two.
0
TEXT
8
NOTES
10
28000.0
20
-14320.0
30
0.0
40
380.0
1
4. No lift. Stairs are in the right-hand block. No sedation-dependent day case work
0
TEXT
8
NOTES
10
28000.0
20
-14940.0
30
0.0
40
380.0
1
   on the first floor at any budget.
0
TEXT
8
NOTES
10
28000.0
20
-15560.0
30
0.0
40
380.0
1
5. Both existing kitchens already have water and drainage. They take the wet
0
TEXT
8
NOTES
10
28000.0
20
-16180.0
30
0.0
40
380.0
1
   functions: phlebotomy on the ground floor, sterilising on the first.
0
TEXT
8
NOTES
10
28000.0
20
-16800.0
30
0.0
40
380.0
1
6. Most bedrooms have en-suite bathrooms, so consulting rooms come with private WCs.
0
ENDSEC
0
EOF
